# xmcd CD database file
#
# Track frame offsets:
#	150
#	21755
#	44550
#	66225
#
# Disc length: 1177 seconds
#
# Revision: 0
# Processed by: cddbd v1.5.1PL2 Copyright (c) Steve Scherf et al.
# Submitted via: CDex 1.51
#
DISCID=32049704
DTITLE=マニ☆ラバ - ふるさとのうた
DYEAR=1900
DGENRE=JPop
TTITLE0=ふるさとのうた
TTITLE1=カザラナイママ
TTITLE2=ふるさとのうた（カラオケ）
TTITLE3=カザラナイママ（カラオケ）
EXTD=
EXTT0=
EXTT1=
EXTT2=
EXTT3=
PLAYORDER=
